<?xml version="1.0" encoding="utf-8"?>
<!-- Generator: Adobe Illustrator 23.1.0, SVG Export Plug-In . SVG Version: 6.00 Build 0)  -->
<svg version="1.1" id="Layer_1" xmlns="http://www.w3.org/2000/svg" xmlns:xlink="http://www.w3.org/1999/xlink" x="0px" y="0px"
	 viewBox="0 0 2000 2000" style="enable-background:new 0 0 2000 2000;" xml:space="preserve">
<style type="text/css">
	.st0{fill:#231F20;}
</style>
<path class="st0" d="M1434.7,934.8c-98,0-196,0-294,0c-25.2,0-50.3,0-75.5,0c0-87.5,0-175,0-262.4c0-35.7,0-71.4,0-107.1
	c0-34.1-30-66.8-65.2-65.2c-35.3,1.6-65.2,28.7-65.2,65.2c0,98,0,196,0,294c0,25.2,0,50.3,0,75.5c-87.5,0-175,0-262.4,0
	c-35.7,0-71.4,0-107.1,0c-34.1,0-66.8,30-65.2,65.2c1.6,35.3,28.6,65.2,65.2,65.2c98,0,196,0,294,0c25.2,0,50.3,0,75.5,0
	c0,87.5,0,175,0,262.4c0,35.7,0,71.4,0,107.1c0,34.1,30,66.8,65.2,65.2c35.3-1.6,65.2-28.7,65.2-65.2c0-98,0-196,0-294
	c0-25.2,0-50.3,0-75.5c87.5,0,175,0,262.4,0c35.7,0,71.4,0,107.1,0c34.1,0,66.8-30,65.2-65.2
	C1498.4,964.7,1471.3,934.8,1434.7,934.8z"/>
</svg>
